<?xml version="1.0" encoding="UTF-8"?>
<svg id="Camada_1" data-name="Camada 1" xmlns="http://www.w3.org/2000/svg" viewBox="0 0 152 100">
  <defs>
    <style>
      .cls-1 {
        fill: #252525;
        stroke-width: 0px;
      }
    </style>
  </defs>
  <path class="cls-1" d="M49.27,43.88c1.46,0,2.67-.5,3.63-1.46.96-1.01,1.41-2.22,1.41-3.68v-.5h-5.54v1.06h4.43c-.1,1.01-.55,1.86-1.21,2.52-.7.65-1.56,1.01-2.62,1.01-1.16,0-2.06-.4-2.87-1.21-.76-.81-1.16-1.76-1.16-2.92s.4-2.11,1.16-2.92c.76-.81,1.71-1.21,2.82-1.21.81,0,1.56.2,2.17.55.65.35,1.11.91,1.46,1.61l1.06-.35c-.35-.91-.96-1.61-1.81-2.11s-1.81-.76-2.92-.76c-1.46,0-2.67.5-3.68,1.51s-1.51,2.22-1.51,3.68.5,2.67,1.51,3.68c1.01,1.01,2.22,1.51,3.68,1.51Z"/>
  <path class="cls-1" d="M60.65,37.39l.1-1.11c-.15-.05-.3-.05-.5-.05-1.26,0-2.27.6-2.97,1.86v-1.81h-1.16v7.35h1.16v-2.82c0-1.06.25-1.86.76-2.52s1.26-.96,2.17-.96c.2.05.35.05.45.05Z"/>
  <path class="cls-1" d="M64.73,43.88c1.21,0,2.17-.45,2.77-1.41v1.21h1.16v-7.35h-1.16v3.52c0,.96-.25,1.66-.7,2.17s-1.06.76-1.86.76c-.6,0-1.11-.2-1.46-.6-.35-.4-.55-.96-.55-1.66v-4.18h-1.16v4.38c0,.96.25,1.71.81,2.27.55.6,1.31.91,2.17.91Z"/>
  <path class="cls-1" d="M78.68,40c0-1.16-.35-2.06-1.06-2.77-.7-.7-1.56-1.06-2.57-1.06-1.26,0-2.22.45-2.92,1.36v-1.16h-1.16v9.87h1.16v-3.68c.7.91,1.66,1.36,2.92,1.36,1.01,0,1.86-.35,2.57-1.06.7-.81,1.06-1.71,1.06-2.87ZM76.81,42.07c-.5.5-1.16.81-1.96.81-.7,0-1.36-.25-1.91-.81s-.81-1.21-.81-2.06.25-1.51.81-2.06,1.21-.81,1.91-.81c.76,0,1.41.25,1.96.81.5.5.81,1.21.81,2.06-.05.86-.3,1.56-.81,2.06Z"/>
  <path class="cls-1" d="M83.56,43.88c1.11,0,2.01-.35,2.77-1.11s1.11-1.66,1.11-2.77-.35-2.01-1.11-2.77c-.76-.7-1.66-1.06-2.77-1.06s-2.01.35-2.77,1.06c-.76.7-1.11,1.66-1.11,2.77s.35,2.01,1.11,2.77c.76.7,1.66,1.11,2.77,1.11ZM81.6,37.94c.55-.55,1.21-.81,1.96-.81s1.41.25,1.96.81c.55.55.81,1.21.81,2.01,0,.86-.25,1.51-.81,2.06s-1.21.81-1.96.81-1.46-.25-1.96-.81c-.55-.55-.81-1.21-.81-2.06,0-.81.25-1.46.81-2.01Z"/>
  <polygon class="cls-1" points="48.41 61.61 56.02 61.61 56.02 57.48 48.41 57.48 48.41 54 56.97 54 56.97 49.87 44.08 49.87 44.08 69.31 57.12 69.31 57.12 65.18 48.41 65.18 48.41 61.61"/>
  <path class="cls-1" d="M72.68,64.18v-9.22h-4.13v8.01c0,1.61-1.11,2.72-2.77,2.72-1.56,0-2.57-1.06-2.57-2.67v-8.06h-4.13v9.27c0,3.27,2.11,5.39,5.29,5.39,1.91,0,3.47-.86,4.58-2.42.6,1.36,1.96,2.06,3.98,2.06h1.16v-3.98h-.3c-.7.05-1.11-.35-1.11-1.11Z"/>
  <path class="cls-1" d="M80.14,56.97v-2.01h-4.13v14.35h4.13v-6.7c0-2.22,1.56-3.68,4.33-3.68v-4.23c-1.71,0-3.22.86-4.33,2.27Z"/>
  <path class="cls-1" d="M92.93,54.61c-4.43,0-7.75,3.22-7.75,7.5s3.32,7.5,7.75,7.5,7.75-3.22,7.75-7.5c-.05-4.28-3.37-7.5-7.75-7.5ZM92.93,65.69c-2.01,0-3.52-1.51-3.52-3.52s1.51-3.52,3.52-3.52,3.52,1.51,3.52,3.52-1.51,3.52-3.52,3.52Z"/>
  <polygon class="cls-1" points="102.39 69.31 106.77 69.31 106.77 61.81 113.77 61.81 113.77 57.68 106.77 57.68 106.77 54 114.88 54 114.88 49.87 102.39 49.87 102.39 69.31"/>
  <rect class="cls-1" x="117.05" y="54.96" width="4.13" height="14.35"/>
  <path class="cls-1" d="M130.95,54.61c-4.43,0-7.75,3.22-7.75,7.5s3.32,7.5,7.75,7.5,7.75-3.22,7.75-7.5-3.32-7.5-7.75-7.5ZM130.95,65.69c-2.01,0-3.52-1.51-3.52-3.52s1.51-3.52,3.52-3.52,3.52,1.51,3.52,3.52-1.51,3.52-3.52,3.52Z"/>
  <path class="cls-1" d="M146.91,60.45c-1.86-.4-2.67-.86-2.67-1.56,0-.6.65-1.06,1.46-1.06.86,0,1.56.55,1.56,1.26h4.13c0-2.52-2.42-4.48-5.64-4.48-2.92,0-5.54,1.61-5.54,4.58,0,2.32,1.61,3.88,4.68,4.48,1.76.35,2.57.86,2.57,1.56s-.81,1.11-1.61,1.11c-1.01,0-1.81-.65-1.81-1.46h-4.08c0,2.57,2.47,4.68,5.89,4.68,3.07,0,5.69-1.71,5.69-4.73,0-2.22-1.51-3.68-4.63-4.38Z"/>
  <path class="cls-1" d="M119.11,48.36c-1.36,0-2.42,1.01-2.42,2.37s1.06,2.42,2.42,2.42,2.42-1.01,2.42-2.42c0-1.36-1.06-2.37-2.42-2.37Z"/>
  <path class="cls-1" d="M29.58,40.21l-9.57-9.57h0c-.91-.91-2.11-1.41-3.42-1.41s-2.52.5-3.42,1.41l-9.57,9.57c-3.07,3.07-3.98,7.55-2.32,11.58.3.76.7,1.51,1.21,2.17-2.17,2.97-2.62,6.75-1.21,10.27,1.66,4.03,5.44,6.55,9.82,6.55h10.98c4.38,0,8.16-2.52,9.82-6.55,1.46-3.52.96-7.3-1.21-10.27.45-.65.86-1.36,1.21-2.17,1.66-4.03.81-8.46-2.32-11.58ZM4.35,62.97c-.76-1.81-.91-4.33.5-6.65,1.76,1.31,3.93,2.01,6.29,2.01h.2l-6.14,6.14c-.35-.5-.65-1.01-.86-1.51ZM14.98,67.5h-3.83c-1.36,0-2.52-.3-3.47-.86l7.3-7.3v8.16ZM14.98,55.06h-3.83c-1.61,0-2.97-.45-4.08-1.21l7.91-7.91v9.11ZM14.98,41.31l-10.17,10.12c-.2-.3-.35-.6-.45-.91-.91-2.17-.96-5.44,1.61-8.01l9.01-8.96v7.75ZM18.25,45.95l7.91,7.91c-1.06.7-2.42,1.21-4.08,1.21h-3.83s0-9.11,0-9.11ZM22.08,67.5h-3.83v-8.16l7.3,7.3c-.96.55-2.11.86-3.47.86ZM28.87,62.97c-.2.5-.5,1.01-.86,1.51l-6.14-6.14h.2c2.37,0,4.53-.7,6.29-2.01,1.41,2.32,1.21,4.83.5,6.65ZM28.87,50.53c-.15.3-.3.6-.45.91l-10.17-10.12v-7.75l9.01,9.01c2.57,2.52,2.52,5.79,1.61,7.96Z"/>
</svg>