<?xml version="1.0" encoding="UTF-8"?>
<svg id="Camada_1" data-name="Camada 1" xmlns="http://www.w3.org/2000/svg" viewBox="0 0 152 100">
  <defs>
    <style>
      .cls-1 {
        fill: #252525;
        stroke-width: 0px;
      }
    </style>
  </defs>
  <path class="cls-1" d="M100.88,61.13c-.19.02-.37.06-.56.06-1.39,0-2.77,0-4.16,0-1.46-.01-2.37-.77-2.8-2.16-.62-1.99-1.23-4-2-5.93-.54-1.35-1.78-1.92-3.18-2.09-.54-.07-1.09,0-1.63-.03-.53-.03-.69.22-.69.71.01,1.98-.03,3.96.03,5.94.02.65.22,1.32.45,1.93.22.59.65,1.04,1.36,1.11.17.01.32.18.47.28-.02.06-.04.13-.06.19-.21.03-.42.07-.62.07-2.3,0-4.6,0-6.9,0-.22,0-.43-.13-.65-.21.18-.12.34-.29.54-.34.77-.2,1.38-1.06,1.49-2.18.02-.22,0-.44,0-.67,0-5.39,0-10.78,0-16.18,0-1.79-.21-2.08-1.91-2.64-.06-.02-.09-.1-.25-.26.33-.07.56-.16.8-.16,3.04,0,6.09-.03,9.13.01,1.6.03,3.18.28,4.67.96,1.88.86,2.82,2.36,2.87,4.37.03,1.02-.02,2.09-.3,3.06-.59,2.06-2.23,2.96-4.2,3.37-.14.03-.27.07-.59.14.59.26,1.03.44,1.45.65,1.37.71,2.01,2.01,2.57,3.32.52,1.22.9,2.5,1.31,3.76.46,1.39,1.55,2.02,2.84,2.42.2.06.38.17.57.26-.03.08-.05.16-.08.24ZM85.86,44.71h0c0,.82,0,1.63,0,2.45,0,.82.02,1.63,0,2.45-.02.53.18.78.74.75.91-.05,1.83-.03,2.74-.1,2.22-.18,3.23-1.63,3.44-3.43.16-1.35.13-2.74,0-4.1-.14-1.53-.79-3.07-2.71-3.43-1.1-.21-2.25-.17-3.38-.26-.67-.06-.86.23-.85.86.03,1.61.01,3.21.01,4.82Z"/>
  <path class="cls-1" d="M.23,38.67c.17-.04.34-.1.51-.1,3.17,0,6.33-.05,9.5.04,2,.05,3.98.42,5.68,1.61,1.34.94,2.03,2.28,2.04,3.91,0,1.19.15,2.39-.35,3.57-.69,1.61-1.93,2.5-3.51,3.04-2.18.76-4.45.79-6.72.78-.95,0-.95,0-.95.98,0,1.71-.03,3.41.01,5.12.03,1.24.37,2.37,1.66,2.87.37.14.82.09,1.23.17.19.04.35.17.53.26-.16.1-.33.28-.49.29-2.92.02-5.84.02-8.75,0-.13,0-.25-.15-.38-.22.11-.1.22-.28.34-.3,1.14-.17,1.58-.93,1.66-1.96.12-1.4.25-2.8.26-4.2.04-3.76.03-7.52,0-11.27,0-.91-.15-1.82-.32-2.71-.14-.72-.61-1.23-1.34-1.44-.2-.06-.4-.12-.6-.17v-.26ZM6.42,45.03h0c0,1.75.02,3.51,0,5.26,0,.5.12.72.66.69.81-.05,1.63-.01,2.44-.04,2.12-.08,3.9-1.79,4-3.9.06-1.33.17-2.68-.02-3.99-.3-2.03-1.02-3.33-3.15-3.76-.98-.2-2.01-.15-3.01-.25-.7-.07-.96.15-.93.89.05,1.7.02,3.41.02,5.11Z"/>
  <path class="cls-1" d="M111.49,46.09c4.37-.25,7.64,3.17,7.53,7.88-.09,4.13-3.01,7.55-7.79,7.48-3.5-.06-7.48-2.57-7.3-8.06.13-4.13,3.05-7.58,7.55-7.29ZM107.82,53.71c.23,1.67.36,3.4.74,5.06.3,1.3,1.01,2.26,3.14,2.14,1.33-.08,2.52-.94,2.73-2.26.27-1.66.53-3.35.56-5.02.02-1.43-.31-2.86-.48-4.29-.19-1.61-1.1-2.59-2.52-2.72-2.03-.18-3.05.37-3.45,2.16-.36,1.6-.48,3.25-.72,4.94Z"/>
  <path class="cls-1" d="M28.14,53.58c-1.46,0-2.92.02-4.38,0-.62-.01-.8.28-.73.82.62,4.32,4.25,6.02,7.81,4.12.42-.23.74-.65,1.12-.95.17-.13.38-.21.57-.32,0,.24.08.53-.01.73-.66,1.4-1.75,2.4-3.18,2.94-2.88,1.07-6.04.63-8.16-1.9-1.62-1.93-2.08-4.23-1.66-6.68.7-4.16,4.02-6.71,8.25-6.19,3.36.41,5.1,2.37,5.43,5.88.15,1.56.07,1.57-1.48,1.57-1.19,0-2.37,0-3.56,0ZM26.44,52.94c.94,0,1.88.03,2.82-.02.21-.01.58-.28.58-.43,0-1.8-.29-3.54-1.46-5-.89-1.1-2.38-1.21-3.38-.23-1.42,1.39-1.85,3.2-1.97,5.1-.03.47.27.58.67.58.92,0,1.83,0,2.75,0Z"/>
  <path class="cls-1" d="M137.93,53.74c.06-3.02,1.29-5.3,3.83-6.84,2.26-1.37,6.77-1.23,8.56,1.08,1.13,1.47,1.57,3.16,1.44,5-.04.55-.47.48-.83.49-2.75.01-5.49.02-8.24.03-1.12,0-1.27.26-.94,1.34.32,1.04.64,2.04,1.34,2.91,1.72,2.12,5.62,1.98,7.5-.07.15-.17.4-.25.61-.37-.05.25-.04.52-.15.73-1.09,2.23-2.99,3.16-5.36,3.34-3.41.26-5.66-1.43-7.02-4.37-.46-.99-.5-2.18-.73-3.27ZM145.07,52.94h0c.77,0,1.53,0,2.3,0q1.26,0,1.08-1.26c-.02-.15-.02-.29-.03-.44-.12-1.35-.53-2.6-1.34-3.69-.91-1.22-2.55-1.28-3.59-.17-1.22,1.31-1.58,2.96-1.86,4.65-.11.66.16.96.86.92.86-.04,1.73-.01,2.59-.01Z"/>
  <path class="cls-1" d="M128.39,45.9c1.32.26,2.64.51,3.96.77.6.12.79.51.77,1.08-.02.79,0,1.58-.02,2.37,0,.2-.17.4-.26.59-.11-.17-.27-.32-.32-.51-.45-1.51-1.22-2.83-2.79-3.3-.9-.27-1.96-.3-2.9-.13-1.08.2-1.49,1.53-.8,2.61.45.71,1.11,1.33,1.79,1.83,1.03.76,2.22,1.29,3.23,2.07.82.64,1.68,1.38,2.18,2.27,1.44,2.58.11,5.41-3.37,5.8-1.94.22-3.89.05-5.74-.7-.68-.28-1.12-.63-1.04-1.47.07-.83,0-1.68.03-2.52,0-.19.14-.38.22-.56.12.15.28.29.34.46.42,1.16.82,2.32,1.74,3.21,1.04,1.01,3.36,1.51,4.56.88.33-.17.66-.55.77-.9.36-1.12-.15-2.47-1.15-3.12-1.26-.82-2.57-1.55-3.82-2.4-1.23-.83-2.38-1.77-2.83-3.29-.4-1.34.29-3.2,1.47-3.96,1.22-.79,2.54-1.04,3.97-.86.01-.07.02-.15.03-.22Z"/>
  <path class="cls-1" d="M45.24,46.63c-.22.04-.43.12-.65.12-.79.01-1.58.02-2.37,0-.49-.02-.72.12-.71.66.02,3.04-.06,6.09.04,9.12.03,1.05.14,2.25,1.43,2.76.94.37,1.77.22,2.5-.49.2-.19.45-.33.76-.39-.32,1.06-1.05,1.74-1.9,2.33-1.03.71-2.19.75-3.35.61-1.39-.16-2.53-1.35-2.63-2.73-.13-1.84-.23-3.68-.28-5.52-.04-1.78-.03-3.56.01-5.34.02-.72-.12-1.16-.96-1.04-.14.02-.3-.08-.45-.12,0-.06,0-.13,0-.19.24-.04.47-.13.71-.12.56.02.73-.23.7-.77-.04-.91.01-1.83-.02-2.74-.02-.58.1-.93.78-.98.64-.04,1.27-.2,1.9-.32.59-.11.79.1.77.7-.04,1.14,0,2.27-.02,3.41-.01.52.19.71.7.69.79-.03,1.58-.02,2.37,0,.22,0,.44.07.66.1,0,.08,0,.16,0,.24Z"/>
  <path class="cls-1" d="M68.13,58.63c-.48.56-.91,1.17-1.45,1.67-1.33,1.21-2.93,1.4-4.57.88-1.28-.4-1.98-1.48-2.03-2.74-.15-3.5-.17-7-.23-10.51-.02-1.08,0-1.08-1.12-1.17-.11,0-.22-.06-.33-.1-.01-.07-.02-.14-.03-.2.24-.05.49-.16.73-.15.6.03.78-.23.75-.8-.04-.89.02-1.78-.02-2.67-.03-.62.13-.98.82-1.03.64-.05,1.27-.2,1.9-.31.47-.08.68.08.67.59-.02,1.06,0,2.13-.01,3.19,0,1.01,0,1.01,1.05,1.02.67,0,1.34,0,2,0,.22,0,.44.08.66.12,0,.08,0,.15,0,.23-.22.03-.44.09-.66.1-.79.01-1.58.01-2.37,0-.46,0-.68.16-.68.65.01,3.04-.06,6.09.05,9.12.04,1.04.15,2.26,1.42,2.79.95.4,1.78.25,2.53-.44.2-.18.42-.34.63-.51l.29.28Z"/>
  <path class="cls-1" d="M55.15,60.83c-.49.41-4.97.54-6.03.19.16-.16.26-.3.4-.39.62-.4.9-.98.9-1.68.01-3.19,0-6.38.01-9.56,0-.78-.49-1.17-1.08-1.54-.19-.12-.3-.39-.44-.59.2-.1.38-.25.59-.3,1.15-.27,2.3-.5,3.44-.78.7-.17.84-.09.84.64,0,3.66,0,7.32,0,10.97,0,1.19.17,2.31,1.36,3.04Z"/>
  <path class="cls-1" d="M141.08,39.38c.81-.25,1.61-.54,2.43-.74.24-.06.61.05.79.21,1.63,1.5,3.23,3.03,4.84,4.56.06.06.06.18.15.45-.53-.15-.97-.2-1.33-.4-2.2-1.2-4.39-2.44-6.58-3.66-.15-.08-.32-.13-.47-.2.06-.08.12-.16.17-.24Z"/>
  <path class="cls-1" d="M51.84,43.31c-1.14,0-1.85-.71-1.86-1.83,0-1.08.84-1.96,1.88-1.96,1.04,0,1.91.88,1.91,1.93,0,1.06-.84,1.86-1.93,1.86Z"/>
</svg>