<?xml version="1.0" encoding="UTF-8"?>
<svg id="Camada_1" data-name="Camada 1" xmlns="http://www.w3.org/2000/svg" viewBox="0 0 152 100">
  <defs>
    <style>
      .cls-1 {
        fill: #252525;
        stroke-width: 0px;
      }
    </style>
  </defs>
  <path class="cls-1" d="M24.46,41.97c.13.31.15.54.26.59,3.47,1.64,2.98,4.59,2.55,7.55-.24,1.64-.41,3.3-.65,5.26-2.24,0-4.86.04-7.48-.06-.3-.01-.81-.84-.8-1.29.02-1.37.19-2.74.39-4.1.42-2.91-.35-4.01-3.2-4.41-3.8-.52-3.87-.49-4.65,3.27-.36,1.73-.71,3.46-.95,5.2-.14,1.01-.56,1.44-1.6,1.42-2.04-.05-4.08-.03-6.12-.01-1.01,0-1.34-.34-1.14-1.41,1.48-8.18,2.93-16.37,4.32-24.57.24-1.42.8-1.94,2.27-1.89,5.34.2,10.69.14,16.01.46,3.88.24,5.63,1.68,6.1,4.24.63,3.46-1.23,7.66-4.04,9.1-.42.21-.83.42-1.27.65ZM15.76,39.93c1.18-.21,2.41-.27,3.53-.66,1.47-.51,2.39-2.09,2.13-3.36-.31-1.56-1.58-2.02-2.91-2.27-.69-.13-1.43-.05-2.14-.05q-2.82,0-3.37,2.77-.68,3.41,2.77,3.57Z"/>
  <path class="cls-1" d="M71.88,52.48c-1.11.47-2.18.99-3.29,1.37-3.39,1.16-7.03.27-8.85-2.21-.5-.69-.89-1.54-1.07-2.37-1.03-4.69,1.28-12.08,7.11-13.97,3.07-1,6.07-1.2,8.56,1.46.68.73,1.02.37,1.4-.44.23-.5.89-1.04,1.42-1.11,1.3-.16,2.64-.05,3.96-.06.96-.01,1.4.25,1.2,1.37-.99,5.53-1.88,11.07-2.86,16.6-.2,1.13-.57,2.25-1,3.31-1.01,2.44-2.61,4.24-5.29,5.05-4.46,1.34-8.8,1.24-13.06-.66-.62-.28-1.27-.76-1.63-1.32-.39-.61-.44-1.43-.64-2.16.65-.16,1.3-.4,1.96-.45,1.15-.07,2.32.02,3.47-.03,1.07-.04,1.9.19,2.86.85.78.54,2.24.56,3.22.26,1.76-.55,2.93-3.36,2.52-5.5ZM73.86,43.68c-.24-1.51-.48-2.84-1.9-3.44-1.48-.63-2.98-.24-3.84,1.03-.86,1.27-1.53,2.78-1.82,4.28-.28,1.45.34,2.83,1.98,3.39,1.49.52,3.22.06,4.04-1.37.69-1.2,1.04-2.59,1.54-3.9Z"/>
  <path class="cls-1" d="M149.81,55.38c-1.93,0-4.12.02-6.32-.02-.31,0-.84-.3-.89-.54-.41-1.91-1.34-1-2.26-.5-3.5,1.9-7.12,2.33-10.67.34-.84-.47-1.56-1.76-1.7-2.77-.49-3.65,1.76-6.74,5.38-7.56,2.68-.6,5.41-1,8.11-1.53,1.29-.25,2.77-.45,2.81-2.2.03-1.08-1.56-1.7-3.43-1.42-.48.07-1.15.16-1.36.48-1.2,1.84-3.02,1.47-4.75,1.48-.55,0-1.11.05-1.65-.01-.68-.07-1.35-.23-2.03-.36.25-.75.35-1.59.77-2.23,1.46-2.24,3.77-3.36,6.28-3.49,3.54-.18,7.14-.16,10.64.29,2.34.3,3.4,2.03,3.14,4.51-.41,3.77-1.18,7.49-1.74,11.24-.2,1.31-.22,2.64-.35,4.29ZM138.14,52.05c2.32-.28,4.69-2.28,4.84-4.31.03-.37-.54-1.15-.69-1.12-1.7.37-3.44.71-5.01,1.41-.62.28-1.26,1.59-1.1,2.22.19.72,1.26,1.2,1.96,1.79Z"/>
  <path class="cls-1" d="M87.11,41.14c.47-2.94,2.14-4.5,4.37-5.32,4.19-1.54,8.56-1.52,12.88-.74,2.7.49,3.96,2.09,3.69,4.82-.36,3.6-1.12,7.17-1.64,10.76-.21,1.44-.25,2.91-.39,4.69-2.01,0-4.23.02-6.46-.03-.25,0-.67-.44-.71-.72-.24-1.53-.99-1.15-1.82-.56-2.82,1.99-5.99,2.06-9.21,1.57-2.67-.41-4.15-2.66-3.7-5.34.53-3.2,2.42-5.28,5.58-5.96,2.64-.57,5.3-.98,7.95-1.51.68-.14,1.44-.33,1.96-.75.39-.31.72-1.07.63-1.54-.09-.46-.67-1.06-1.15-1.18-1.49-.38-2.9-.23-4.15.91-.54.49-1.39.83-2.13.88-1.8.12-3.61.04-5.69.04ZM94.39,52.1c2.33-.38,4.66-2.41,4.82-4.43.03-.34-.57-1.07-.75-1.03-1.65.34-3.36.64-4.87,1.34-.68.32-1.43,1.64-1.28,2.3.18.73,1.35,1.23,2.08,1.83Z"/>
  <path class="cls-1" d="M53.62,49.54c-.98,2.63-2.74,3.85-4.66,4.8-4.11,2.01-8.42,2.17-12.63.57-3.13-1.19-4.55-3.86-4.6-7.19-.09-6.41,5.01-12.2,11.39-12.89,1.31-.14,2.64-.13,3.95-.05,6.46.41,8.85,5.93,8.28,10.91-.12,1.07-.83,1.13-1.66,1.12-4.13-.01-8.26-.03-12.39.02-.64,0-1.69.25-1.83.63-.21.6.03,1.51.38,2.12,1.14,1.96,3.5,2.6,5.24,1.17,1.45-1.19,2.94-1.27,4.6-1.23,1.19.03,2.37,0,3.92,0ZM44.07,43.13s0,.01,0,.02c.39,0,.77,0,1.16,0,.44,0,.88.02,1.32,0,1.5-.07,1.92-.85,1.16-2.17-.84-1.47-2.13-1.92-3.78-1.75-1.74.18-2.83,1.16-3.45,2.68-.11.26.44,1.11.79,1.17.9.17,1.86.06,2.8.06Z"/>
  <path class="cls-1" d="M123.91,28.7c-.31,1.74-.5,3.1-.81,4.43-.33,1.43.08,2.09,1.61,2.05.72-.02,1.77-.42,1.76,1.01-.02,2.47-.44,3.32-2,3.18-1.82-.16-2.61.52-2.83,2.29-.22,1.74-.66,3.46-.98,5.19-.43,2.39-.12,2.79,2.27,3.12.26.04.52.12,1.02.24-.29,1.53-.52,3.03-.91,4.48-.09.33-.73.71-1.12.72-2.03.05-4.08.14-6.09-.07-2.81-.29-3.83-1.74-3.41-4.53.45-3.05.93-6.09,1.49-9.12.25-1.36.22-2.29-1.52-2.35-.29,0-.72-.66-.78-1.06-.08-.51.21-1.07.23-1.62.04-1.08.47-1.66,1.63-1.51,1.41.18,1.94-.56,2.16-1.86.78-4.59.81-4.59,5.45-4.59.86,0,1.73,0,2.84,0Z"/>
  <path class="cls-1" d="M40.69,72.46c-12.84,0-25.67.01-38.51-.03-.65,0-1.64-.28-1.89-.74-.62-1.15.05-1.91,1.46-1.91,22.92,0,45.84.02,68.76.02,3.09,0,6.17-.05,9.25.05.52.02,1.31.55,1.46,1.01.3.98-.1,1.73-1.35,1.6-.38-.04-.77,0-1.16,0-12.67,0-25.34,0-38.01,0Z"/>
  <path class="cls-1" d="M40.66,66.63c-12.89,0-25.78,0-38.67,0-.99,0-1.9.07-1.84-1.39.04-.9.34-1.34,1.25-1.33.28,0,.55,0,.83,0,25.67,0,51.34,0,77.01,0,1.15,0,2.4-.1,2,1.64-.1.42-.66.79-1.09,1.05-.24.15-.65.03-.98.03-12.83,0-25.67,0-38.5,0Z"/>
  <path class="cls-1" d="M26.82,58.22c8.32,0,16.63,0,24.95,0,.84,0,1.67-.13,1.71,1.17.03,1.22-.52,1.45-1.61,1.45-7.82-.05-15.64-.06-23.46-.07-8.87,0-17.73.01-26.6.03-.89,0-1.62.01-1.65-1.24-.03-1.35.76-1.35,1.71-1.35,8.32,0,16.63,0,24.95,0Z"/>
  <path class="cls-1" d="M99.68,59.99c-.78,3.77-1.49,7.43-2.34,11.06-.1.44-.89.71-1.37,1.06-.13-.48-.46-1.01-.37-1.44.38-1.83.91-3.63,1.33-5.45.14-.6.11-1.24.15-1.86-.16-.05-.32-.1-.47-.15-.75,1.46-1.51,2.92-2.25,4.39-.62,1.23-1.12,2.53-1.88,3.66-.31.46-1.16.79-1.74.76-.3-.02-.75-.94-.79-1.48-.12-1.81-.08-3.63-.13-5.45-.02-.63-.15-1.25-.24-1.88-.15-.02-.3-.05-.45-.07-.19.51-.44,1-.56,1.52-.47,2.04-.82,4.1-1.37,6.12-.14.51-.83.88-1.26,1.31-.17-.54-.58-1.14-.48-1.63.64-3.24,1.42-6.45,2.1-9.67.35-1.66,1.62-.91,2.53-1.03,1.09-.14,1.02.71,1.06,1.43.09,1.7.19,3.41.31,5.11.03.46.17.91.67,1.47.38-.6.81-1.18,1.14-1.81.71-1.37,1.35-2.77,2.06-4.14,1.18-2.31,1.44-2.42,4.35-1.84Z"/>
  <path class="cls-1" d="M138.13,64.76c.02,3.89-2.18,6.73-5.83,7.54-3.53.78-6.38-1.57-6.32-5.2.08-4.24,3.09-7.47,6.97-7.5,3.1-.02,5.16,2.03,5.17,5.16ZM135.92,65.01c-.02-2.95-2.42-4.55-4.69-3.29-1.93,1.08-3.33,3.85-3.04,6.02.31,2.35,2.51,3.58,4.63,2.55,2.26-1.1,2.93-3.13,3.1-5.28Z"/>
  <path class="cls-1" d="M113.18,64.74c.03,4.43-2.98,7.7-7.08,7.7-2.99,0-4.98-2.07-4.98-5.16,0-4.37,2.97-7.66,6.93-7.67,3.19-.01,5.11,1.92,5.13,5.14ZM111.11,64.99c.07-1.63-.74-2.77-2.12-3.45-1.31-.65-2.44-.09-3.48.77-1.61,1.34-2.43,3.1-2.12,5.1.16,1.05.9,2.37,1.77,2.85.79.43,2.33.23,3.16-.29,1.74-1.09,2.68-2.87,2.79-4.99Z"/>
  <path class="cls-1" d="M150.17,62.75c-1.04.43-1.69.41-2.51-.5-.57-.63-1.78-.86-2.72-.92-.44-.03-1.16.69-1.32,1.21-.13.4.28,1.2.69,1.49.93.66,1.99,1.17,3.04,1.64,1.21.54,2,1.33,2.06,2.71.06,1.46-.55,2.61-1.81,3.28-2.03,1.08-4.15,1.02-6.19.02-.54-.26-1.05-.87-1.25-1.44-.17-.48.13-1.13.22-1.7.53.24,1.25.34,1.55.75,1.1,1.46,2.74,1.91,4.33,1.01,1.39-.79,1.45-1.98.08-2.78-.99-.58-2.08-1.01-3.09-1.55-1.12-.6-1.91-1.43-1.92-2.83,0-1.46.77-2.35,1.95-3,2.72-1.51,6.01-.32,6.9,2.62Z"/>
  <path class="cls-1" d="M125.82,59.77c-.05,1.72-1.01,1.7-1.89,1.6-1.5-.16-2.2.47-2.46,1.94-.45,2.54-1.08,5.05-1.55,7.59-.18.95-.63,1.51-1.52,1.14-.34-.14-.63-1.03-.55-1.51.41-2.5.89-4.98,1.44-7.45.28-1.25-.08-1.79-1.36-1.71-.33.02-.7.09-.98-.03-.34-.15-.59-.47-.88-.72.27-.29.54-.82.83-.83,2.94-.06,5.89-.04,8.93-.04Z"/>
</svg>