<?xml version="1.0" encoding="UTF-8"?>
<svg id="Camada_1" data-name="Camada 1" xmlns="http://www.w3.org/2000/svg" viewBox="0 0 152 100">
  <defs>
    <style>
      .cls-1 {
        fill: #fff;
        fill-rule: evenodd;
      }

      .cls-1, .cls-2 {
        stroke-width: 0px;
      }

      .cls-2 {
        fill: #252525;
      }
    </style>
  </defs>
  <rect id="rect246-1-2" class="cls-2" x="-.28" y="30.58" width="151.48" height="38.83"/>
  <g id="g74-6-4-0-5-8">
    <path id="path76-1-9-8-0-9" class="cls-1" d="M37,44.37c1.85-6.57-3.51-8.58-9.14-8.58s-11.75,1.78-13.42,8.24c-.62,2.95.2,5.44,2.7,6.65,5.38,2.61,11.14,1.81,10.35,5.52-.38,1.81-2.8,2.72-4.55,2.72-2.72,0-4.31-1.4-3.73-3.97h-7.56c-1.46,7.41,3.74,9.26,10.09,9.26s12.56-2.73,13.78-8.47c1.56-7.37-4.99-7.82-9.31-8.99-1.89-.53-4.17-1.17-3.75-3.17.29-1.36,2.04-2.49,3.78-2.49,1.29,0,2.2.3,2.73.87.56.57.73,1.36.47,2.42h7.56ZM58.85,63.64l1.13-5.29h-13.22l1.23-5.78h12.17l1.12-5.29h-12.17l1.2-5.63h13.22l1.13-5.29h-20.78l-5.8,27.28h20.78ZM63.12,63.64h6.8l4.44-20.89h.07l4.82,20.89h10.47l5.8-27.28h-6.8l-4.31,20.25-.09.08-4.82-20.33h-10.58l-5.8,27.28ZM100.07,63.64l2.91-5.33h11.07l.68,5.33h8.54l-4.97-27.28h-9.22l-16.57,27.28h7.56ZM106.03,53.02l6.11-11.33h.11l1.06,11.33h-7.29ZM133.7,63.64l5.8-27.28h-7.56l-5.8,27.28h7.56Z"/>
  </g>
</svg>