<?xml version="1.0" encoding="UTF-8"?>
<svg id="Camada_2" xmlns="http://www.w3.org/2000/svg" viewBox="0 0 751.9 290.84">
  <defs>
    <style>
      .cls-1, .cls-2 {
        fill: #fff;
      }

      .cls-2 {
        stroke: #fff;
        stroke-miterlimit: 10;
        stroke-width: .91px;
      }
    </style>
  </defs>
  <g id="Camada_1-2" data-name="Camada_1">
    <g>
      <g>
        <path class="cls-1" d="M203.21,205.62c-1.36-.13-2.71-.19-4.04-.18-6.46.06-12.58-2.86-16.69-7.85l-28.79-34.96c-4.18-5.07-5.7-11.75-4.44-18.2.45-2.31.68-4.69.68-7.13,0-.36,0-.72-.02-1.08-.19-6.44,2.62-12.61,7.52-16.8l17.54-15.03c4.92-4.21,11.47-6,17.84-4.84,3.18.58,6.5.75,9.91.46,18.14-1.54,32.68-16.38,33.85-34.55,1.44-22.25-16.72-40.65-38.9-39.6-17.8.85-32.71,14.55-35.03,32.23-.27,2.06-.37,4.09-.3,6.08.2,6.41-2.65,12.53-7.52,16.71l-17.54,15.03c-4.92,4.21-11.47,6-17.84,4.84-3.18-.58-6.5-.75-9.91-.46-18.12,1.54-32.64,16.35-33.85,34.5-1.44,21.67,15.72,39.7,37.08,39.7h0c6.67,0,12.99,2.97,17.23,8.12l28.57,34.69c4.1,4.97,5.8,11.53,4.51,17.84-.67,3.29-.91,6.73-.65,10.28,1.34,18.32,16.25,33.11,34.58,34.3,22.36,1.45,40.83-16.89,39.59-39.21-1.01-18.13-15.31-33.07-33.38-34.86Z"/>
        <circle class="cls-1" cx="66.83" cy="240.56" r="44.39"/>
        <circle class="cls-1" cx="22.06" cy="123.01" r="22.06"/>
        <circle class="cls-1" cx="78.03" cy="33.81" r="33.81"/>
      </g>
      <g>
        <g>
          <g>
            <path class="cls-1" d="M750.48,179.86l-41.48-71.84c15.2-9.32,25.34-26.09,25.34-45.23h0c0-29.28-23.74-53.02-53.02-53.02h-81.32c-3.89,0-7.04,3.15-7.04,7.04v17.33c0,3.89,3.15,7.04,7.04,7.04h81.32c11.93,0,21.6,9.67,21.6,21.6h0c0,11.93-9.67,21.6-21.6,21.6h-81.32c-3.89,0-7.04,3.15-7.04,7.04h0v91.95c0,3.89,3.15,7.04,7.04,7.04h17.33c3.89,0,7.04-3.15,7.04-7.04v-67.57h52.84l41.05,71.09c1.26,2.18,3.58,3.52,6.1,3.52h20.01c5.42,0,8.81-5.87,6.1-10.57Z"/>
            <path class="cls-1" d="M411.14,90.84c5.08-8.14,8.02-17.75,8.02-28.05h0c0-29.28-23.74-53.02-53.02-53.02h-81.32c-3.89,0-7.04,3.15-7.04,7.04v17.33c0,3.89,3.15,7.04,7.04,7.04h81.32c11.93,0,21.6,9.67,21.6,21.6h0c0,11.93-9.67,21.6-21.6,21.6h-81.32c-3.89,0-7.04,3.15-7.04,7.04v17.33c0,3.89,3.15,7.04,7.04,7.04h100.95c11.93,0,21.6,9.67,21.6,21.6h0c0,11.93-9.67,21.6-21.6,21.6h-69.54c-3.89,0-7.04-3.15-7.04-7.04v-1.62c0-3.89-3.15-7.04-7.04-7.04h-17.33c-3.89,0-7.04,3.15-7.04,7.04v33.04c0,3.89,3.15,7.04,7.04,7.04h100.95c29.28,0,53.02-23.74,53.02-53.02h0c0-20.09-11.18-37.58-27.66-46.57Z"/>
          </g>
          <path class="cls-1" d="M466.72,162.58c0-11.17,5.19-18.39,18.05-27.74,1.11-.81,1.32-2.35.45-3.42h0c-7.18-8.58-10.53-16.41-10.53-24.24,0-14.75,12.12-25.44,30.46-25.44,17.38,0,29.35,9.48,29.35,23.18,0,11.46-5.63,19.1-18.81,28.63-1.11.81-1.32,2.39-.43,3.45l7.56,9.02c2.38,2.84,6.98,1.82,7.91-1.76.86-3.33,1.55-6.89,2.05-10.64.3-2.28,2.22-4,4.53-4h11.74c2.87,0,5.01,2.62,4.48,5.44-2.28,12.12-5.86,22.33-10.66,30.55-.97,1.66-.81,3.73.41,5.21l8.67,10.49c2.46,2.97.34,7.47-3.52,7.47h-14.92c-1.38,0-2.69-.63-3.56-1.71l-1.78-2.23c-.73-.91-2.02-1.16-3.03-.57-6.98,4.1-15.16,6.16-24.44,6.16-19.94,0-33.97-11.14-33.97-27.85ZM502.92,174.32c2.82,0,5.52-.57,8.05-1.63,2.76-1.15,3.58-4.69,1.7-7.03l-12.46-15.51c-1.83-2.27-5.28-2.27-7.12,0-2.87,3.54-4.21,7.18-4.21,11.22,0,7.68,5.58,12.95,14.03,12.95ZM500.29,118.26c1.52,2.33,4.8,2.78,6.85.9,4.58-4.2,6.63-8,6.63-12.58,0-5.42-3.35-9.03-8.93-9.03-5.26,0-8.77,3.61-8.77,9.18,0,3.46,1.41,7.19,4.22,11.53Z"/>
        </g>
        <g>
          <path class="cls-2" d="M277.78,270.89l3.72-2.23c2.62,4.82,5.64,7.23,9.08,7.23,1.47,0,2.85-.34,4.14-1.03,1.29-.68,2.27-1.6,2.95-2.75.67-1.15,1.01-2.37,1.01-3.66,0-1.47-.5-2.91-1.49-4.32-1.37-1.94-3.87-4.29-7.5-7.02-3.65-2.76-5.92-4.75-6.82-5.98-1.55-2.06-2.32-4.3-2.32-6.7,0-1.9.46-3.64,1.37-5.21.91-1.57,2.2-2.8,3.85-3.71,1.66-.9,3.46-1.35,5.4-1.35,2.06,0,3.99.51,5.79,1.53,1.8,1.02,3.7,2.9,5.7,5.64l-3.57,2.71c-1.65-2.18-3.05-3.62-4.21-4.32-1.16-.69-2.43-1.04-3.79-1.04-1.77,0-3.21.54-4.33,1.61-1.12,1.07-1.68,2.39-1.68,3.96,0,.95.2,1.88.6,2.77.4.89,1.12,1.87,2.17,2.92.58.56,2.46,2.01,5.66,4.38,3.79,2.8,6.39,5.29,7.8,7.47,1.41,2.18,2.11,4.38,2.11,6.58,0,3.17-1.21,5.93-3.62,8.27-2.41,2.34-5.34,3.51-8.8,3.51-2.66,0-5.07-.71-7.23-2.13-2.16-1.42-4.16-3.79-5.98-7.13Z"/>
          <path class="cls-2" d="M333.52,234.16c6.63,0,12.18,2.21,16.65,6.64,4.47,4.42,6.7,9.87,6.7,16.34s-2.23,11.85-6.69,16.31c-4.46,4.46-9.89,6.7-16.31,6.7s-11.97-2.22-16.44-6.67c-4.47-4.44-6.7-9.82-6.7-16.13,0-4.21,1.02-8.11,3.05-11.7,2.03-3.59,4.81-6.4,8.32-8.44,3.51-2.03,7.32-3.05,11.41-3.05ZM333.71,238.42c-3.24,0-6.31.84-9.21,2.53-2.9,1.69-5.17,3.96-6.8,6.82-1.63,2.86-2.44,6.05-2.44,9.56,0,5.2,1.8,9.6,5.41,13.18,3.61,3.58,7.95,5.38,13.04,5.38,3.4,0,6.54-.82,9.44-2.47,2.89-1.65,5.15-3.9,6.77-6.76,1.62-2.86,2.43-6.04,2.43-9.53s-.81-6.62-2.43-9.43c-1.62-2.81-3.9-5.06-6.84-6.75-2.94-1.69-6.06-2.53-9.36-2.53Z"/>
          <path class="cls-2" d="M365.65,235.27h4.38v39.56h16.85v4.23h-21.22v-43.78Z"/>
          <path class="cls-2" d="M393.95,235.27h4.38v26.43c0,3.14.06,5.09.18,5.86.22,1.73.72,3.17,1.52,4.33.79,1.16,2.01,2.13,3.66,2.92,1.65.78,3.3,1.18,4.97,1.18,1.45,0,2.84-.31,4.17-.92,1.33-.61,2.44-1.47,3.33-2.56.89-1.09,1.55-2.41,1.96-3.96.3-1.11.45-3.39.45-6.85v-26.43h4.38v26.43c0,3.91-.38,7.07-1.15,9.48-.76,2.41-2.29,4.51-4.58,6.3-2.29,1.79-5.06,2.68-8.32,2.68-3.53,0-6.56-.84-9.08-2.53-2.52-1.69-4.21-3.92-5.06-6.7-.54-1.71-.8-4.78-.8-9.23v-26.43Z"/>
          <path class="cls-2" d="M474.5,243.39l-3.45,2.65c-1.9-2.48-4.19-4.36-6.86-5.64-2.67-1.28-5.6-1.92-8.8-1.92-3.49,0-6.73.84-9.7,2.52-2.98,1.68-5.28,3.93-6.92,6.76s-2.46,6.01-2.46,9.54c0,5.34,1.83,9.79,5.49,13.36,3.66,3.57,8.28,5.36,13.86,5.36,6.13,0,11.26-2.4,15.39-7.2l3.45,2.62c-2.18,2.78-4.91,4.93-8.17,6.44-3.26,1.52-6.91,2.28-10.94,2.28-7.66,0-13.7-2.55-18.13-7.65-3.71-4.31-5.57-9.5-5.57-15.6,0-6.41,2.25-11.8,6.74-16.18,4.49-4.38,10.12-6.56,16.89-6.56,4.09,0,7.78.81,11.07,2.43,3.29,1.62,5.99,3.88,8.1,6.8ZM452.5,279.05h2.62l-.51,3.54c.46-.06.83-.09,1.13-.09.97,0,1.79.3,2.44.91.65.61.98,1.36.98,2.28,0,1.31-.6,2.42-1.79,3.33-1.19.91-2.87,1.37-5.03,1.37-1.77,0-3.42-.3-4.97-.89l.65-2.05c1.27.4,2.46.6,3.57.6,1.49,0,2.53-.18,3.13-.55.6-.37.89-.83.89-1.38,0-.34-.16-.64-.49-.89-.33-.26-.78-.39-1.35-.39-.48,0-1.17.09-2.08.27l.8-6.04Z"/>
          <path class="cls-2" d="M504.13,234.16c6.63,0,12.18,2.21,16.65,6.64,4.47,4.42,6.7,9.87,6.7,16.34s-2.23,11.85-6.69,16.31c-4.46,4.46-9.89,6.7-16.31,6.7s-11.97-2.22-16.44-6.67c-4.47-4.44-6.7-9.82-6.7-16.13,0-4.21,1.02-8.11,3.05-11.7,2.03-3.59,4.81-6.4,8.32-8.44,3.51-2.03,7.32-3.05,11.41-3.05ZM504.32,238.42c-3.24,0-6.31.84-9.21,2.53-2.9,1.69-5.17,3.96-6.8,6.82-1.63,2.86-2.44,6.05-2.44,9.56,0,5.2,1.8,9.6,5.41,13.18,3.61,3.58,7.95,5.38,13.04,5.38,3.4,0,6.54-.82,9.44-2.47,2.89-1.65,5.15-3.9,6.77-6.76,1.62-2.86,2.43-6.04,2.43-9.53s-.81-6.62-2.43-9.43c-1.62-2.81-3.9-5.06-6.84-6.75-2.94-1.69-6.06-2.53-9.36-2.53ZM513.22,225.77l2.08,2.89c-1.43,1.04-2.63,1.75-3.62,2.11s-2.02.54-3.11.54c-1.43,0-2.9-.37-4.41-1.1-1.29-.63-2.11-1-2.47-1.1-.48-.14-.99-.21-1.55-.21-.69,0-1.35.12-1.98.37-.63.25-1.53.81-2.72,1.68l-1.96-3.04c1.81-1.94,4.04-2.92,6.7-2.92,1.27,0,2.79.41,4.55,1.22,1.69.79,3.02,1.19,3.99,1.19,1.09,0,2.59-.55,4.49-1.64Z"/>
          <path class="cls-2" d="M536.29,235.27h25.09v4.29h-20.72v13.72h20.54v4.29h-20.54v17.2h20.54v4.29h-24.91v-43.78Z"/>
          <path class="cls-2" d="M564.41,270.89l3.72-2.23c2.62,4.82,5.64,7.23,9.08,7.23,1.47,0,2.85-.34,4.14-1.03,1.29-.68,2.27-1.6,2.95-2.75.67-1.15,1.01-2.37,1.01-3.66,0-1.47-.5-2.91-1.49-4.32-1.37-1.94-3.87-4.29-7.5-7.02-3.65-2.76-5.92-4.75-6.82-5.98-1.55-2.06-2.32-4.3-2.32-6.7,0-1.9.46-3.64,1.37-5.21.91-1.57,2.2-2.8,3.85-3.71,1.66-.9,3.46-1.35,5.4-1.35,2.06,0,3.99.51,5.79,1.53,1.8,1.02,3.7,2.9,5.7,5.64l-3.57,2.71c-1.65-2.18-3.05-3.62-4.21-4.32-1.16-.69-2.43-1.04-3.79-1.04-1.77,0-3.21.54-4.33,1.61-1.12,1.07-1.68,2.39-1.68,3.96,0,.95.2,1.88.6,2.77.4.89,1.12,1.87,2.17,2.92.58.56,2.46,2.01,5.66,4.38,3.79,2.8,6.39,5.29,7.8,7.47,1.41,2.18,2.11,4.38,2.11,6.58,0,3.17-1.21,5.93-3.62,8.27-2.41,2.34-5.34,3.51-8.8,3.51-2.66,0-5.07-.71-7.23-2.13-2.16-1.42-4.16-3.79-5.98-7.13Z"/>
          <path class="cls-2" d="M616.2,235.27h25.09v4.29h-20.72v13.72h20.54v4.29h-20.54v17.2h20.54v4.29h-24.91v-43.78Z"/>
          <path class="cls-2" d="M646.86,279.05l6.27-43.78h.71l17.8,35.93,17.63-35.93h.7l6.3,43.78h-4.29l-4.33-31.31-15.48,31.31h-1.12l-15.67-31.55-4.3,31.55h-4.23Z"/>
          <path class="cls-2" d="M717.4,239.55v-4.29h23.99v4.29h-9.76v39.5h-4.46v-39.5h-9.76Z"/>
          <path class="cls-2" d="M747.08,235.27h4.38v43.78h-4.38v-43.78Z"/>
        </g>
      </g>
    </g>
  </g>
</svg>